<svg viewBox="0 0 40 40" fill="none" xmlns="http://www.w3.org/2000/svg">
<path d="M36.9872 13.9552C35.7513 9.48339 31.1555 6.80754 26.6397 7.9235L26.5637 7.96344C25.7237 8.16343 25.0438 8.64344 24.4438 9.2834C23.5238 10.2833 21.8479 10.9593 19.972 10.9593C18.0921 10.9593 16.3762 10.2833 15.4962 9.2834C14.9363 8.64344 14.2163 8.16343 13.3763 7.96344L13.3003 7.9235C8.78455 6.80754 4.18875 9.48339 2.95283 13.9552C1.55289 19.0709 0.832932 22.7827 1.03292 27.4186C1.07291 28.6985 1.59288 29.8144 2.43285 30.6944C3.23282 31.5743 4.38874 32.1343 5.6287 32.2943C7.34461 32.4943 9.02453 31.8143 10.1405 30.5344L11.3004 29.2185C12.9803 27.0986 16.2562 25.6626 20.008 25.6626C23.7638 25.6626 26.9997 27.0986 28.7196 29.2185L29.8795 30.5344C30.9955 31.8143 32.6754 32.4943 34.3913 32.2943C35.6313 32.1743 36.7872 31.5743 37.5871 30.6944C38.4271 29.8144 38.9471 28.6985 38.9871 27.4186C39.1071 22.7827 38.3871 19.0709 36.9872 13.9552ZM14.5363 19.4309H12.5404V21.4269C12.5404 22.1468 11.9404 22.7468 11.2204 22.7468C10.5005 22.7468 9.90449 22.1468 9.90449 21.4269V19.4309H7.90459C7.18463 19.4309 6.58864 18.8309 6.58864 18.111C6.58864 17.751 6.74464 17.391 6.98464 17.155C7.22462 16.9151 7.5446 16.7551 7.94458 16.7551H9.94448V14.7152C9.94448 13.9952 10.5404 13.3992 11.2604 13.3992C11.6204 13.3992 11.9804 13.5592 12.2204 13.7992C12.4604 14.0352 12.6204 14.3552 12.6204 14.7552V16.795H14.6163C15.3362 16.795 15.9362 17.391 15.9362 18.111C15.8962 18.8309 15.2962 19.4309 14.5363 19.4309ZM29.2796 13.3192C30.1555 13.3192 30.8755 14.0352 30.8755 14.9551C30.8755 15.8351 30.1555 16.5551 29.2796 16.5551C28.3996 16.5551 27.6396 15.8351 27.6396 14.9551C27.6396 14.0352 28.3596 13.3192 29.2796 13.3192ZM26.0837 19.7509C25.2038 19.7509 24.4838 19.0309 24.4838 18.111C24.4838 17.231 25.2038 16.5151 26.0837 16.5151C26.9597 16.5151 27.6796 17.231 27.6796 18.111C27.7196 18.9909 26.9997 19.7509 26.0837 19.7509ZM29.2796 22.9068C28.3996 22.9068 27.6396 22.1868 27.6396 21.2668C27.6396 20.3909 28.3596 19.6709 29.2796 19.6709C30.1555 19.6709 30.8755 20.3909 30.8755 21.2668C30.8755 22.1868 30.1555 22.9068 29.2796 22.9068ZM32.4354 19.7509C31.5555 19.7509 30.7955 19.0309 30.7955 18.111C30.7955 17.231 31.5154 16.5151 32.4354 16.5151C33.3114 16.5151 34.0313 17.231 34.0313 18.111C34.0313 18.9909 33.3114 19.7509 32.4354 19.7509Z" fill="url(#paint0_linear_6224_50794)"/>
<defs>
<linearGradient id="paint0_linear_6224_50794" x1="6.84615" y1="19.9996" x2="39" y2="19.9996" gradientUnits="userSpaceOnUse">
<stop stop-color="#CCCEDC"/>
<stop offset="0.985" stop-color="#CDCFDD"/>
</linearGradient>
</defs>
</svg>
